<svg width="48" height="48" viewBox="0 0 48 48" fill="none" xmlns="http://www.w3.org/2000/svg">
<rect width="48" height="48" fill="white"/>
<circle cx="24.5" cy="24.5" r="19.5" stroke="#512BD4" stroke-width="2"/>
<path d="M38 25C38.5523 25 39 24.5523 39 24C39 23.4477 38.5523 23 38 23V25ZM10.2929 23.2929C9.90237 23.6834 9.90237 24.3166 10.2929 24.7071L16.6569 31.0711C17.0474 31.4616 17.6805 31.4616 18.0711 31.0711C18.4616 30.6805 18.4616 30.0474 18.0711 29.6569L12.4142 24L18.0711 18.3431C18.4616 17.9526 18.4616 17.3195 18.0711 16.9289C17.6805 16.5384 17.0474 16.5384 16.6569 16.9289L10.2929 23.2929ZM38 23L11 23V25L38 25V23Z" fill="#512BD4"/>
</svg>
